<?xml version="1.0" standalone="no"?><!DOCTYPE svg PUBLIC "-//W3C//DTD SVG 1.1//EN" "http://www.w3.org/Graphics/SVG/1.1/DTD/svg11.dtd"><svg t="1601509226381" class="icon" viewBox="0 0 1024 1024" version="1.1" xmlns="http://www.w3.org/2000/svg" p-id="2577" xmlns:xlink="http://www.w3.org/1999/xlink" width="200" height="200"><defs><style type="text/css"></style></defs><path d="M932.04 483.875H163.745l350.591-311.627c11.009-9.785 12-26.643 2.216-37.652-9.787-11.005-26.64-11.999-37.653-2.214L74.242 492.065a26.672 26.672 0 0 0 0 39.868L478.9 891.618a26.567 26.567 0 0 0 17.708 6.735c7.353 0 14.676-3.022 19.945-8.95 9.785-11.01 8.793-27.866-2.216-37.653L160.473 537.214H932.04c14.729 0 26.669-11.94 26.669-26.67 0-14.729-11.94-26.669-26.67-26.669z" p-id="2578" fill="#285FC2"></path></svg>