<?xml version="1.0" standalone="no"?><!DOCTYPE svg PUBLIC "-//W3C//DTD SVG 1.1//EN" "http://www.w3.org/Graphics/SVG/1.1/DTD/svg11.dtd"><svg class="icon" width="200px" height="200.00px" viewBox="0 0 1024 1024" version="1.1" xmlns="http://www.w3.org/2000/svg"><path fill="#285FC2" d="M418.45 367.881c30.34-30.34 32.869-78.38 5.056-111.249l-85.965-108.72c-27.813-36.663-80.909-41.72-116.306-13.907-2.529 2.528-5.057 2.528-5.057 5.057l-75.852 75.852c-72.06 72.059 30.34 266.745 217.442 453.846 185.837 185.838 376.73 285.71 450.054 216.178l74.588-74.587c32.869-32.87 32.869-85.966 0-116.307l-5.057-5.056-108.72-85.966c-32.87-27.812-80.91-25.284-111.25 5.057l-46.776 46.775c-50.567-30.34-94.814-64.474-134.005-102.4-39.19-39.19-72.059-83.437-102.4-134.005l44.247-50.568z m-39.19-74.587c8.849 11.378 8.849 27.812-2.53 36.662l-60.68 64.474c-8.85 8.849-11.378 22.755-5.057 32.869C343.862 487.98 385.58 542.34 433.62 591.644c48.04 48.04 103.664 89.758 164.345 122.628 11.378 5.056 24.02 2.528 32.87-5.057l64.474-64.474c11.377-11.378 25.284-11.378 36.661-2.529l108.721 88.494s2.529 0 2.529 2.529c11.378 10.113 11.378 27.812 1.264 37.925 0 0 0 1.265-1.264 1.265l-77.116 74.587c-36.662 36.662-208.593-55.624-372.939-217.442-164.345-161.817-252.84-336.276-217.442-372.938l78.38-78.38c11.378-8.85 30.341-8.85 39.19 5.057l85.966 109.985z" /></svg>