<svg xmlns="http://www.w3.org/2000/svg" viewBox="0 0 290.36 290.59"><defs><style>.cls-1{fill:#5182c3;}.cls-2{fill:#6399d1;}.cls-3{fill:#3861ad;}.cls-4{fill:#fff;}.cls-5{font-size:43.55px;fill:#232323;font-family:Avenir-Black, Avenir;font-weight:800;}.cls-6{letter-spacing:-0.09em;}</style></defs><title>logo_v2</title><g id="Layer_2" data-name="Layer 2"><g id="Layer_1-2" data-name="Layer 1"><path class="cls-1" d="M93.11,173.57C58.45,147.83,43.92,103.58,56.6,65A92.85,92.85,0,0,1,127.18,3.35c37.21-7,74.59,10.11,93.88,39.47,18.89,28.74,14.28,59.89,12.06,70.44-4.26,20.29-15.56,34.57-30.7,54.28a280.2,280.2,0,0,1-28.37,31.24,319.65,319.65,0,0,1-27,23.3c-9.73-6.43-34.56-24.67-34.53-48.51,0-13.3,8.68-27.51,26-55.92,3.65-6,6.81-10.82,8.92-14a82.8,82.8,0,0,0-17.85,9.87C103.4,132.59,95.53,162,93.11,173.57Z"/><path class="cls-2" d="M78.86,29.47c6.75-7,23.84-22.9,50.4-27.91C162.9-4.78,200.67,8.35,222,38.09c22.29,31.17,16.05,66.22,13.78,76.19-4.8,21.1-15.84,34.24-35,57.29a320.32,320.32,0,0,1-50.79,48.88A480.6,480.6,0,0,0,176,169.13c14.37-33,14.74-44.22,14.75-48.23.08-24.38-12.09-42.39-15.67-47.67C145.39,29.28,85,29.37,78.86,29.47Z"/><path class="cls-3" d="M147.09,222.08c-4.77-2.21-24.75-12.14-31.56-33.71a53.75,53.75,0,0,1-2-21.38c1.23-13.13,6.77-22.25,12.74-32.07,4.93-8.12,13.09-19.45,14.8-18.51,2.86,1.58-21.34,32.13-13.7,60.17,4.38,16.09,17.94,26.57,28.92,33a42.24,42.24,0,0,1-3.71,6.27A43,43,0,0,1,147.09,222.08Z"/><path class="cls-4" d="M146.78,77.35l55.3-1.64-38,46.87L158.5,95l13.36-9-14.19,3.49Z"/><text class="cls-5" transform="translate(0 270.69)"><tspan class="cls-6">T</tspan><tspan x="20.99" y="0">ravel Planner</tspan></text></g></g></svg>