<?xml version="1.0" standalone="no"?><!DOCTYPE svg PUBLIC "-//W3C//DTD SVG 1.1//EN" "http://www.w3.org/Graphics/SVG/1.1/DTD/svg11.dtd"><svg class="icon" width="200px" height="200.00px" viewBox="0 0 1024 1024" version="1.1" xmlns="http://www.w3.org/2000/svg"><path fill="#285FC2" d="M987.5456 529.134933a20.753067 20.753067 0 0 0 20.753067-20.753066c0-271.701333-222.549333-492.7488-496.298667-492.7488a493.568 493.568 0 0 0-484.215467 386.389333 20.753067 20.753067 0 1 0 40.482134 9.079467A451.925333 451.925333 0 0 1 427.2128 64.989867c-63.556267 81.92-98.645333 253.7472-101.649067 422.7072H36.4544a20.753067 20.753067 0 0 0-20.753067 20.821333l0.068267 1.160533L15.701333 512c0 273.6128 222.549333 496.366933 496.298667 496.366933 234.427733 0 438.954667-166.2976 486.1952-395.537066a20.6848 20.6848 0 1 0-40.618667-8.465067c-37.546667 181.725867-182.749867 320.238933-360.448 354.304 64.3072-83.1488 99.396267-258.4576 101.512534-429.533867h288.904533z m-21.162667-41.437866H698.368c-3.003733-168.823467-38.0928-340.650667-101.512533-422.638934 203.776 38.2976 359.765333 211.899733 369.4592 422.638934zM512 57.207467c66.56 0 140.561067 175.581867 144.930133 430.4896H367.0016C371.5072 232.789333 445.508267 57.207467 512.068267 57.207467zM57.480533 529.066667h267.946667c2.184533 171.144533 37.2736 346.658133 101.717333 429.6704A455.543467 455.543467 0 0 1 57.412267 529.134933z m454.587734 437.6576c-67.1744 0-141.9264-178.858667-145.066667-437.589334h290.2016c-3.2768 258.8672-78.097067 437.589333-145.134933 437.589334z" /></svg>