<?xml version="1.0" standalone="no"?><!DOCTYPE svg PUBLIC "-//W3C//DTD SVG 1.1//EN" "http://www.w3.org/Graphics/SVG/1.1/DTD/svg11.dtd"><svg class="icon" width="200px" height="200.00px" viewBox="0 0 1024 1024" version="1.1" xmlns="http://www.w3.org/2000/svg"><path fill="#285FC2" d="M511.4 259.8c-63.9 0-115.8 52.2-115.8 116.5 0 64.4 51.8 116.5 115.8 116.5s115.8-52.2 115.8-116.5c-0.1-64.3-51.9-116.5-115.8-116.5z m0 176.7c-31.9 0-57.9-27-57.9-60.2s26-60.2 57.9-60.2 57.9 27 57.9 60.2c-0.1 33.2-26 60.2-57.9 60.2z m0-372.5c-191.8 0-347.3 157.8-347.3 352.4S511.4 961 511.4 961s347.3-350 347.3-544.6S703.2 64 511.4 64z m0 813.3C385.5 741.6 222 528.1 222 416.4 222 254 351.8 122 511.4 122c159.6 0 289.4 132.1 289.4 294.4-0.1 111.5-163.6 325.2-289.4 460.9z" /></svg>