<svg xmlns="http://www.w3.org/2000/svg" viewBox="0 0 186.21 222.08"><defs><style>.cls-1{fill:#5182c3;}.cls-2{fill:#6399d1;}.cls-3{fill:#3861ad;}.cls-4{fill:#fff;}</style></defs><title>logo</title><g id="Layer_2" data-name="Layer 2"><g id="Layer_1-2" data-name="Layer 1"><path class="cls-1" d="M41,173.57C6.38,147.83-8.16,103.58,4.53,65A92.84,92.84,0,0,1,75.1,3.35c37.21-7,74.6,10.11,93.88,39.47,18.89,28.74,14.28,59.89,12.07,70.44-4.27,20.29-15.57,34.57-30.7,54.28A282.21,282.21,0,0,1,122,198.78a321.24,321.24,0,0,1-27,23.3c-9.73-6.43-34.56-24.67-34.54-48.51,0-13.3,8.68-27.51,26-55.92,3.65-6,6.81-10.82,8.92-14a82.75,82.75,0,0,0-17.84,9.87C51.33,132.59,43.46,162,41,173.57Z"/><path class="cls-2" d="M26.78,29.47c6.75-7,23.84-22.9,50.4-27.91,33.64-6.34,71.42,6.79,92.69,36.53,22.3,31.17,16,66.22,13.78,76.19-4.8,21.1-15.83,34.24-35,57.29a320.31,320.31,0,0,1-50.8,48.88A480.6,480.6,0,0,0,124,169.13c14.38-33,14.74-44.22,14.76-48.23.08-24.38-12.1-42.39-15.68-47.67C93.31,29.28,32.92,29.37,26.78,29.47Z"/><path class="cls-3" d="M95,222.08c-4.76-2.21-24.74-12.14-31.55-33.71A54,54,0,0,1,61.4,167c1.23-13.13,6.78-22.25,12.75-32.07,4.93-8.12,13.08-19.45,14.8-18.51C91.8,118,67.6,148.54,75.24,176.58c4.38,16.09,18,26.57,28.92,33A42.78,42.78,0,0,1,95,222.08Z"/><path class="cls-4" d="M94.7,77.35,150,75.71l-38,46.87L106.42,95l13.36-9L105.6,89.48Q100.16,83.42,94.7,77.35Z"/></g></g></svg>